<svg id="Component_2976_40" data-name="Component 2976 – 40" xmlns="http://www.w3.org/2000/svg" xmlns:xlink="http://www.w3.org/1999/xlink" width="375" height="812" viewBox="0 0 375 812">
  <defs>
    <linearGradient id="linear-gradient" x1="0.5" y1="-0.005" x2="0.52" y2="1.041" gradientUnits="objectBoundingBox">
      <stop offset="0" stop-color="#ecf1fc" stop-opacity="0.58"/>
      <stop offset="0.398" stop-color="#ecf1fc"/>
      <stop offset="1" stop-color="#ecf1fc"/>
    </linearGradient>
    <clipPath id="clip-path">
      <rect id="medium-shot-man-driving-truck" width="375" height="812" fill="url(#linear-gradient)"/>
    </clipPath>
    <clipPath id="clip-path-2">
      <rect id="Rectangle_25" data-name="Rectangle 25" width="166.606" height="215.622" fill="#fff"/>
    </clipPath>
    <clipPath id="clip-path-3">
      <rect id="Rectangle_26" data-name="Rectangle 26" width="16.402" height="32.405" fill="#fff"/>
    </clipPath>
    <clipPath id="clip-path-4">
      <rect id="Rectangle_27" data-name="Rectangle 27" width="30.492" height="35.72" fill="#fff"/>
    </clipPath>
    <clipPath id="clip-path-5">
      <rect id="Rectangle_46" data-name="Rectangle 46" width="273.698" height="419.746" fill="#fff"/>
    </clipPath>
  </defs>
  <g id="Mask_Group_31" data-name="Mask Group 31" clip-path="url(#clip-path)">
    <g id="Group_7180" data-name="Group 7180">
      <rect id="Login_Image_2" data-name="Login Image 2" width="375" height="842" fill="#4880fb"/>
      <rect id="medium-shot-man-driving-truck-2" data-name="medium-shot-man-driving-truck" width="375" height="842" fill="url(#linear-gradient)"/>
      <g id="Group_7172" data-name="Group 7172" transform="translate(-1458.236 2286.347) rotate(-18)">
        <g id="Group_7164" data-name="Group 7164" transform="translate(1961.108 -1865.429)">
          <g id="Group_3312" data-name="Group 3312" transform="translate(0 0)">
            <g id="Group_3307" data-name="Group 3307" transform="translate(0)" opacity="0.2">
              <g id="Group_66" data-name="Group 66" transform="translate(0 580.049) rotate(-90)" opacity="0.8">
                <g id="Group_69" data-name="Group 69" transform="translate(0)">
                  <g id="Group_50" data-name="Group 50" transform="translate(0)">
                    <g id="Group_70" data-name="Group 70">
                      <g id="Group_34" data-name="Group 34" transform="translate(156.994 199.872)">
                        <g id="Group_33" data-name="Group 33">
                          <g id="Group_32" data-name="Group 32" clip-path="url(#clip-path-2)">
                            <path id="Path_56" data-name="Path 56" d="M133.116,144.011l17.921-26.281c5.447-7.987,11.152-17.494,8.257-26.718-.62-1.973-1.633-3.9-1.565-5.965.089-2.732,2.012-5,3.554-7.253a31.321,31.321,0,0,0,3.662-27.513,61.724,61.724,0,0,0-5.1-10.311l-9.119-15.855c-1.99-3.459-4.16-7.1-7.7-8.948-3.156-1.652-6.888-1.606-10.384-2.289-9.821-1.918-17.684-9.571-27.39-12.006C91.568-2.561,77.857,4.887,64.8,10.229a186.6,186.6,0,0,1-25.746,8.206c-12.042,2.991-24.684,5.142-36.8,2.488A48.763,48.763,0,0,0,.217,40.141a3.7,3.7,0,0,0,1.1,2.731c1.034.773,2.519.312,3.632-.342,3.733-2.192,6.291-6.184,10.3-7.815A24.5,24.5,0,0,1,21.9,33.493C44.887,30.986,64.012,15.338,85.383,6.5c2.6-1.075,5.342-2.067,8.151-1.892a20.35,20.35,0,0,1,6.955,2.175l25.036,11.28c9.149,4.122,19.674,10.157,20.146,20.181.3,6.34-3.7,13.138-.613,18.685a17.449,17.449,0,0,1,1.548,2.761c1.52,4.509-4.618,7.681-9.372,7.884-6.559.28-14.566-.268-18.092,5.27-1.7,2.675-1.75,6.094-3.132,8.948-2.446,5.049-8.639,7.566-10.779,12.752-2.645,6.412,2.034,13.719.77,20.539-.823,4.443-4.028,8-6.185,11.973-3.927,7.23-4.338,16.011-2.405,24.009.939,3.884,2.413,7.748,2.156,11.736,0,3.792-2.269,6.689-3.773,9.939-1.628,3.519-2.053,6.875-2.7,10.8a5.515,5.515,0,0,0-.076,2.049,11.619,11.619,0,0,0,1.535,2.8c1.212,2.263.568,5.16-.918,7.253a20.91,20.91,0,0,1-5.824,4.969,65.382,65.382,0,0,1-7.993,4.746c-4.537,2.141-10.353,4.127-11.163,9.077,4.605,2.255,10.178.985,14.814-1.207s8.888-5.262,13.8-6.751c2.848-.864,5.99-1.238,8.279-3.139,1.751-1.454,2.743-3.6,4.025-5.481,2.178-3.195,5.253-5.686,7.526-8.814,5.06-6.967,2.91-14.505,5.052-22.109a77.688,77.688,0,0,1,10.966-22.923" transform="translate(0 0.001)" fill="#fff"/>
                          </g>
                        </g>
                      </g>
                      <g id="Group_37" data-name="Group 37" transform="translate(283.007 351.776)">
                        <g id="Group_36" data-name="Group 36">
                          <g id="Group_35" data-name="Group 35" clip-path="url(#clip-path-3)">
                            <path id="Path_57" data-name="Path 57" d="M14.309,12.744A10.405,10.405,0,0,0,16.2,9.122a13.143,13.143,0,0,0,.072-4.137l-.317-3.6a1.614,1.614,0,0,0-.194-.756,1.278,1.278,0,0,0-.642-.453,3.09,3.09,0,0,0-3.678,1.371c-.793,1.461-.3,3.427-1.288,4.767C9.484,7.228,8.2,7.73,7.946,8.836c-.147.635.087,1.373-.286,1.908a2.34,2.34,0,0,1-1.355.691c-4.04,1.2-3.772,6.247-4.457,9.587C1.388,23.264-.6,27.139.178,29.334c2.681,7.589,10.423-.71,11.091-5.324.43-2.966.131-5.634,1.329-8.466a15.078,15.078,0,0,1,1.71-2.8" transform="translate(0 0)" fill="#fff" opacity="0.995"/>
                          </g>
                        </g>
                      </g>
                      <g id="Group_40" data-name="Group 40" transform="translate(312.25 369.059)">
                        <g id="Group_39" data-name="Group 39">
                          <g id="Group_38" data-name="Group 38" clip-path="url(#clip-path-4)">
                            <path id="Path_58" data-name="Path 58" d="M16.653,23.463a10.905,10.905,0,0,1,3.432.2,16.453,16.453,0,0,0,5.442-.2,6.865,6.865,0,0,0,4.282-2.333c.982-1.343.957-3.51-.413-4.455a13.2,13.2,0,0,0-2.65-.937c-3.681-1.5-3.823-7.69-7.67-8.691-1.482-.386-3.1.184-4.564-.271-2.6-.811-3.254-4.2-5.223-6.084A2.3,2.3,0,0,0,8.149.023,2.412,2.412,0,0,0,6.667.354C2.636,2.418,1.632,7.709,1.76,12.235,1.9,17.109-1.435,29.128.738,33.3c4.575,8.781,12.122-9.111,15.915-9.838" transform="translate(0 0)" fill="#fff" opacity="0.398"/>
                          </g>
                        </g>
                      </g>
                      <g id="Group_43" data-name="Group 43">
                        <g id="Group_42" data-name="Group 42">
                          <g id="Group_71" data-name="Group 71">
                            <path id="Path_59" data-name="Path 59" d="M144.912,265.93l-1.071-.305L180.8,138.516l.132-.109,47.547-39.623-60.208-77.01L87.307,1.182.5,45.288,0,44.295,87.176,0l.2.052,81.531,20.737.117.15,60.99,78.01-48.244,40.2Z" transform="translate(150.686 144.82)" fill="#fff"/>
                            <path id="Path_60" data-name="Path 60" d="M21.185,179.754l-1.071-.306c.915-3.2,9.36-17.635,10.323-19.277V139.878l9.534-9.842a7.924,7.924,0,0,0,.486-10.458L1.881,71.547a8.579,8.579,0,0,1,.9-11.686l30.6-27.934A25.339,25.339,0,0,1,50.5,25.285h6.9A22.136,22.136,0,0,0,70.537,21L99.318,0l.656.9-28.78,21A23.246,23.246,0,0,1,57.4,26.4H50.5a24.234,24.234,0,0,0-16.375,6.351L3.534,60.683a7.463,7.463,0,0,0-.785,10.166L41.325,118.88a9.039,9.039,0,0,1-.554,11.93l-9.22,9.517v20.145l-.076.131c-.094.16-9.379,15.963-10.289,19.15" transform="translate(322.136 152.955)" fill="#fff"/>
                            <path id="Path_61" data-name="Path 61" d="M1.283,211.828a.606.606,0,0,0,.106-.125L0,210.778c.269-.4.719-1.079,40.2-19.164C57.8,183.553,75.507,175.54,78.8,174.05L70.829,89.618l.272-.278L159.031,0l1.191,1.171L72.565,90.234l8.013,84.846-.544.245c-30.616,13.832-76.854,34.968-78.751,36.5" transform="translate(160.118)" fill="#fff"/>
                            <path id="Path_62" data-name="Path 62" d="M.207,49.9,0,47.683c.628-.059,189.6-18.118,251.95-23.812,36.619-3.344,65.856-5.969,86.9-7.8C378.867,12.582,524.871-.331,525.377.007L524.142,1.86a.975.975,0,0,0,.424.163c-.058,0-.143-.008-.252-.008-8.391,0-439.762,40-524.106,47.885" transform="translate(27.197 112.555)" fill="#fff"/>
                            <path id="Path_63" data-name="Path 63" d="M.207,53.886,0,51.669c.628-.059,214.448-20.4,276.8-26.093,36.619-3.344,65.856-5.969,86.9-7.8C403.714,14.287,579.545-.33,580.049.006l-1.235,1.852a.977.977,0,0,0,.424.163C574.761,1.638,85.649,45.9.207,53.886" transform="translate(0 81.897)" fill="#fff"/>
                            <path id="Path_64" data-name="Path 64" d="M23.6,40.834l-.528-.176c.449-1.348,10.35-22,11.643-24.7L0,.509.226,0,35.47,15.688l-.123.258c-.113.235-11.283,23.511-11.742,24.889" transform="translate(321.797 318.612)" fill="#fff"/>
                            <rect id="Rectangle_29" data-name="Rectangle 29" width="0.557" height="26.92" transform="translate(324.081 311.245) rotate(-72.963)" fill="#fff"/>
                            <path id="Path_65" data-name="Path 65" d="M5.856,37.351,5.3,37.3,7.624,11.249c-.334-.477-2.051-2.933-3.766-5.39C2.9,4.49,1.947,3.121,1.232,2.093-.105.17-.105.17.1,0L.454.429.276.214.519.079c.164.27,5.556,7.984,7.62,10.934L8.2,11.1l-.009.1Z" transform="translate(336.756 279.221)" fill="#fff"/>
                            <path id="Path_66" data-name="Path 66" d="M96.342,157.859l-.548-.095c1.328-7.634,3.3-20.077,2.956-20.968-.15-.363-.4-.973,21.335-19.128,9.824-8.207,19.82-16.379,21.424-17.689L73.1,20.95,0,.536.15,0,73.411,20.459l.055.063L142.3,100.048l-.221.181c-16.813,13.716-41.958,34.639-42.794,36.44.4,1.842-2.6,19.185-2.947,21.189" transform="translate(238.025 156.211)" fill="#fff"/>
                            <path id="Path_67" data-name="Path 67" d="M38.379,260.288,0,214.084l.428-.355L37.91,258.852l1.2-19.4,7.664-4.681-2-12.9L23.833,199.047,1.992,176.89l.245-.193,44.444-34.932L18.622,108.22l13.925-10.6L33.852,78.26,29.735,49.53,7.171.231,7.678,0l22.6,49.372.006.04,4.13,28.827,0,.029-1.325,19.64-13.661,10.4,28.053,33.539L2.825,176.942l21.411,21.721L45.3,221.616l2.079,13.433-7.733,4.723Z" transform="translate(332.853 51.409)" fill="#fff"/>
                            <path id="Path_68" data-name="Path 68" d="M33.635,37.457,26.153,20.936l-6.316-4.958-7.1,3.608L8.887,9.92C5.679,6.636.494,1.387,0,1.036l.284-.4L.225,0c.349-.037.5-.036,9.537,9.217L9.84,9.3l3.48,8.74,6.646-3.377,7.089,5.564.056.124L34.649,37Z" transform="translate(187.969 145.361)" fill="#fff"/>
                            <path id="Path_69" data-name="Path 69" d="M29.282,33.9,19.221,9.7H5.47L0,.573.955,0,6.1,8.582H19.963L30.311,33.477Z" transform="translate(202.52 144.266)" fill="#fff"/>
                            <path id="Path_70" data-name="Path 70" d="M58.512,47.628,38.881,26.487,0,.93.612,0,39.605,25.631,59.327,46.87Z" transform="translate(233.643 112.057)" fill="#fff"/>
                            <path id="Path_71" data-name="Path 71" d="M5.99,28.882,0,16.854V0H1.114V16.592L6.987,28.385Z" transform="translate(332.511 103.496)" fill="#fff"/>
                            <path id="Path_72" data-name="Path 72" d="M6.647,30.2,0,15.778V0H1.114V15.533L7.658,29.739Z" transform="translate(347.544 102.158)" fill="#fff"/>
                            <path id="Path_73" data-name="Path 73" d="M4.516,15.048,0,.327,1.064,0,5.326,13.892l46.833-2.384.057,1.112Z" transform="translate(313.1 105.749)" fill="#fff"/>
                            <path id="Path_74" data-name="Path 74" d="M1.043,48.463,0,48.074,7.481,28.048,5.342.085,6.451,0,8.609,28.208Z" transform="translate(279.255 107.786)" fill="#fff"/>
                            <path id="Path_75" data-name="Path 75" d="M242.892,113.7l-40.235-28.29-.08-.109L167.318,37.683l19.687-16.906L170.24,2.281,145.461,21.975,127.126,38.292l-5.085,10.547a9.878,9.878,0,0,1-11.61,5.223l-46.587-13.2c-5.023,2.407-37.757,18.084-38.7,18.4-.9.3-1.045.351-5.192-9.091-2.04-4.645-4.815-11.142-8.248-19.313C5.861,16.947.058,2.819,0,2.679l1.545-.635c8.434,20.539,21.254,51.2,23.6,55.4C29.176,55.6,53.657,43.891,63.406,39.22l.285-.136.3.086,46.891,13.285a8.21,8.21,0,0,0,9.65-4.341l5.231-10.848L144.386,20.7,170.426,0,189.4,20.926l-19.81,17.011L203.838,84.2l40.014,28.135Z" transform="translate(174.333 144.779)" fill="#fff"/>
                            <rect id="Rectangle_30" data-name="Rectangle 30" width="30.766" height="1.114" transform="translate(324.855 161.063) rotate(-69.746)" fill="#fff"/>
                            <path id="Path_76" data-name="Path 76" d="M1.093,15.258,0,15.05C2.836.1,3.444.043,3.932,0l.1,1.109A.446.446,0,0,0,4.344.952c-.481.7-2.033,7.893-3.25,14.306" transform="translate(344.12 130.765)" fill="#fff"/>
                            <rect id="Rectangle_31" data-name="Rectangle 31" width="1.114" height="43.501" transform="translate(283.386 145.088) rotate(-74.088)" fill="#fff"/>
                            <rect id="Rectangle_32" data-name="Rectangle 32" width="1.113" height="29.051" transform="translate(211.851 114.552) rotate(-4.297)" fill="#fff"/>
                            <rect id="Rectangle_33" data-name="Rectangle 33" width="1.113" height="29.436" transform="matrix(0.998, -0.062, 0.062, 0.998, 189.951, 116.573)" fill="#fff"/>
                            <path id="Path_77" data-name="Path 77" d="M11.339,23.038,3.214,4.4,0,.734.837,0,4.2,3.872,12.36,22.593Z" transform="translate(193.329 167.492)" fill="#fff"/>
                            <path id="Path_78" data-name="Path 78" d="M38.385,61.139a3.746,3.746,0,0,1-2.442-6.584L38.567,52.3l-5.357-11.8-13.284-3.11L16.784,8.16,0,1.024.436,0,17.821,7.391l3.127,29.086L34,39.532,39.925,52.6l-3.256,2.8a2.63,2.63,0,1,0,3.462,3.959L43.4,56.487,79.324,39.665a6.8,6.8,0,0,0,3.849-5.153l1.306-8.638,1.1.167-1.306,8.638A7.914,7.914,0,0,1,79.8,40.674L43.944,57.461,40.871,60.19a3.736,3.736,0,0,1-2.486.949" transform="translate(153.071 158.795)" fill="#fff"/>
                            <path id="Path_79" data-name="Path 79" d="M17.217,64.676l-.461-.312C17.384,63.423,52.6,31.3,56.612,27.636l.412-.375.053.554c.67,6.972,1.667,14.652,2.248,15.689,1.318-.879,10.916-9.8,17.293-15.815l3.3-10.387L54.727.826,48.812,14.3,17.291,20.232l1.2,11.6,18.46-3.051,2.947,12.439L.121,50.057,0,49.514,39.222,40.8l-2.7-11.384L18,32.475l-1.312-12.7L48.421,13.8,54.482,0,80.574,17.067,77.105,27.995l-.053.049C74.271,30.669,60.346,43.776,59.4,44.093a.368.368,0,0,1-.325-.046c-.937-.609-2.087-11.471-2.495-15.626C43,40.81,17.847,63.821,17.217,64.676" transform="translate(212.319 210.828)" fill="#fff"/>
                            <path id="Path_80" data-name="Path 80" d="M54.813,134.613l-.557-.014.847-33.487a3.438,3.438,0,0,0-3.3-3.51L0,95.689l2.243-25H53.651l3.733-45.1L40.752.306,41.218,0,57.955,25.443l-.008.1L54.164,71.248H2.751L.607,95.154l51.219,1.891a4,4,0,0,1,3.835,4.082Z" transform="translate(154.71 235.097)" fill="#fff"/>
                            <path id="Path_82" data-name="Path 82" d="M59.3,145.176l-.554-.058,8.325-81.281a1.58,1.58,0,0,0-1.572-1.744H60.367V42.221a1.582,1.582,0,0,0-1.58-1.58h-2.5V26.509l-16.1-1.535-.054-.034L0,.475.289,0l40.08,24.431L56.848,26V40.084h1.939a2.139,2.139,0,0,1,2.136,2.137V61.536h4.572a2.137,2.137,0,0,1,2.125,2.359Z" transform="translate(170.543 254.733)" fill="#fff"/>
                            <path id="Path_83" data-name="Path 83" d="M374.957,112.172l-59.2-66L267.2,54.511,251.422,16.352,218.812,2.485,1.115,128.472,0,126.544,218.659,0l34.473,14.66,15.441,37.356,48.015-8.244,60.026,66.915Z" transform="translate(24.678 209.998)" fill="#fff"/>
                            <path id="Path_84" data-name="Path 84" d="M360.769,261.389,38.395,27.623,0,2.324,1.531,0,39.947,25.313,362.342,259.091Z" transform="translate(182.931 242.132)" fill="#fff"/>
                            <path id="Path_86" data-name="Path 86" d="M4.77,32.661l-.5-.236L15.255,8.948,0,.487.269,0l15.71,8.714-.11.235Z" transform="translate(319.645 326.075)" fill="#fff"/>
                            <path id="Path_87" data-name="Path 87" d="M148.4,61.3l-38.17-41.012L47.725.594.227,21.809,0,21.3,47.691,0l.1.031L110.541,19.8l.05.053,38.22,41.066Z" transform="translate(190.393 162.512)" fill="#fff"/>
                            <path id="Path_88" data-name="Path 88" d="M15.046,52.767,0,48.5,2.705,27.161,12.071,23.2l-1.1-11.7L29.908,0,30.2.476,11.562,11.794l1.1,11.759-9.446,4L.612,48.1,14.7,52.091l6.956-18.859,3.413-17.758.547.1-3.425,17.8Z" transform="translate(242.834 137.878)" fill="#fff"/>
                            <line id="Line_2" data-name="Line 2" y1="18.181" x2="261.595" transform="translate(148.431 75.663)" fill="#b4fff6"/>
                            <path id="Path_89" data-name="Path 89" d="M.038,18.737,0,18.182,261.594,0l.039.556Z" transform="translate(148.412 75.385)" fill="#fff"/>
                          </g>
                        </g>
                      </g>
                    </g>
                  </g>
                </g>
              </g>
            </g>
          </g>
        </g>
      </g>
      <g id="Group_7181" data-name="Group 7181" transform="translate(16 69.28)" opacity="0.15">
        <g id="Group_3863" data-name="Group 3863" transform="translate(38 63)">
          <path id="Path_1731" data-name="Path 1731" d="M36.866,19.923a13.832,13.832,0,0,1-10.338,13.44l-2.787,5.569a.929.929,0,0,1-1.653,0L19.3,33.363a13.924,13.924,0,1,1,17.565-13.44Z" transform="translate(-8.998 -5.998)" fill="#4880fb"/>
          <circle id="Ellipse_165" data-name="Ellipse 165" cx="11" cy="11" r="11" transform="translate(2.933 2.72)" fill="#fff"/>
          <g id="Group_4283" data-name="Group 4283" transform="translate(7.835 11.917)">
            <circle id="Ellipse_167" data-name="Ellipse 167" cx="1.224" cy="1.224" r="1.224" transform="translate(4.875 7.157)" fill="#4880fb" stroke="#4880fb" stroke-width="0.3"/>
            <path id="Path_1748" data-name="Path 1748" d="M13.88,17.665a.588.588,0,0,1-.415-.171,2.581,2.581,0,0,0-3.643,0,.59.59,0,1,1-.831-.838,3.761,3.761,0,0,1,5.3,0,.59.59,0,0,1-.415,1.009Z" transform="translate(-5.543 -10.931)" fill="#4880fb" stroke="#4880fb" stroke-width="0.3"/>
            <path id="Path_1749" data-name="Path 1749" d="M12.994,12.461a.588.588,0,0,1-.417-.173,4.892,4.892,0,0,0-6.912,0,.59.59,0,1,1-.835-.835,6.072,6.072,0,0,1,8.581,0,.59.59,0,0,1-.417,1.008Z" transform="translate(-3.021 -7.363)" fill="#4880fb" stroke="#4880fb" stroke-width="0.3"/>
            <path id="Path_1750" data-name="Path 1750" d="M12.108,7.257a.589.589,0,0,1-.417-.172,7.2,7.2,0,0,0-10.185,0,.59.59,0,0,1-.833-.837,8.383,8.383,0,0,1,11.851,0,.59.59,0,0,1-.417,1.009Z" transform="translate(-0.5 -3.795)" fill="#4880fb" stroke="#4880fb" stroke-width="0.3"/>
          </g>
          <path id="Path_1900" data-name="Path 1900" d="M0,3.412A.649.649,0,0,1,.609,2.73h2.1a1.032,1.032,0,0,0,.929-.75L3.667,1.9l.091-.3a3.651,3.651,0,0,1,.172-.5A1.855,1.855,0,0,1,5.263.026,2.714,2.714,0,0,1,5.737,0H8.485a2.714,2.714,0,0,1,.474.026A1.855,1.855,0,0,1,10.292,1.1a3.64,3.64,0,0,1,.172.5l.091.3.023.078a1.123,1.123,0,0,0,1,.75h2.032a.649.649,0,0,1,.609.682.649.649,0,0,1-.609.682h-13A.649.649,0,0,1,0,3.412Z" transform="translate(6.823 6.33)" fill="#4880fb" stroke="#4880fb" stroke-width="1" opacity="0.8"/>
        </g>
      </g>
      <g id="Group_7182" data-name="Group 7182" transform="translate(269.001 144.638)" opacity="0.3">
        <g id="Group_3863-2" data-name="Group 3863" transform="translate(38 63)">
          <path id="Path_1731-2" data-name="Path 1731" d="M27,14.994a8.936,8.936,0,0,1-6.679,8.683l-1.8,3.6a.6.6,0,0,1-1.068,0l-1.8-3.6A9,9,0,1,1,27,14.994Z" transform="translate(-8.998 -5.998)" fill="#4880fb"/>
          <circle id="Ellipse_165-2" data-name="Ellipse 165" cx="7.106" cy="7.106" r="7.106" transform="translate(1.895 1.757)" fill="#fff"/>
          <g id="Group_4283-2" data-name="Group 4283" transform="translate(5.061 7.699)">
            <circle id="Ellipse_167-2" data-name="Ellipse 167" cx="0.791" cy="0.791" r="0.791" transform="translate(3.149 4.623)" fill="#4880fb"/>
            <path id="Path_1748-2" data-name="Path 1748" d="M12.087,16.92a.38.38,0,0,1-.268-.11,1.667,1.667,0,0,0-2.353,0,.381.381,0,1,1-.537-.542,2.429,2.429,0,0,1,3.427,0,.381.381,0,0,1-.268.652Z" transform="translate(-6.702 -12.57)" fill="#4880fb"/>
            <path id="Path_1749-2" data-name="Path 1749" d="M10.043,11.476a.38.38,0,0,1-.27-.112,3.16,3.16,0,0,0-4.465,0,.381.381,0,0,1-.539-.539,3.922,3.922,0,0,1,5.544,0,.381.381,0,0,1-.27.651Z" transform="translate(-3.6 -8.183)" fill="#4880fb"/>
            <path id="Path_1750-2" data-name="Path 1750" d="M8,6.032a.38.38,0,0,1-.269-.111,4.652,4.652,0,0,0-6.58,0,.381.381,0,0,1-.538-.54,5.415,5.415,0,0,1,7.656,0A.381.381,0,0,1,8,6.032Z" transform="translate(-0.5 -3.795)" fill="#4880fb"/>
          </g>
          <path id="Path_1900-2" data-name="Path 1900" d="M0,2.2a.419.419,0,0,1,.394-.441h1.36a.667.667,0,0,0,.6-.485l.015-.05.059-.2a2.359,2.359,0,0,1,.111-.32A1.2,1.2,0,0,1,3.4.017,1.753,1.753,0,0,1,3.706,0H5.481a1.753,1.753,0,0,1,.306.017,1.2,1.2,0,0,1,.861.7,2.352,2.352,0,0,1,.111.32l.059.2.015.05a.726.726,0,0,0,.648.485H8.793a.419.419,0,0,1,.394.441.419.419,0,0,1-.394.441H.394A.419.419,0,0,1,0,2.2Z" transform="translate(4.408 4.089)" fill="#4880fb" stroke="#4880fb" stroke-width="1" opacity="0.8"/>
        </g>
      </g>
      <g id="Group_7183" data-name="Group 7183" transform="translate(284.999 13.117)" opacity="0.4">
        <g id="Group_3863-3" data-name="Group 3863" transform="translate(38 63)">
          <path id="Path_1731-3" data-name="Path 1731" d="M27,14.994a8.936,8.936,0,0,1-6.679,8.683l-1.8,3.6a.6.6,0,0,1-1.068,0l-1.8-3.6A9,9,0,1,1,27,14.994Z" transform="translate(-8.998 -5.998)" fill="#4880fb"/>
          <circle id="Ellipse_165-3" data-name="Ellipse 165" cx="7.106" cy="7.106" r="7.106" transform="translate(1.895 1.757)" fill="#fff"/>
          <g id="Group_4283-3" data-name="Group 4283" transform="translate(5.061 7.699)">
            <circle id="Ellipse_167-3" data-name="Ellipse 167" cx="0.791" cy="0.791" r="0.791" transform="translate(3.149 4.623)" fill="#4880fb"/>
            <path id="Path_1748-3" data-name="Path 1748" d="M12.087,16.92a.38.38,0,0,1-.268-.11,1.667,1.667,0,0,0-2.353,0,.381.381,0,1,1-.537-.542,2.429,2.429,0,0,1,3.427,0,.381.381,0,0,1-.268.652Z" transform="translate(-6.702 -12.57)" fill="#4880fb"/>
            <path id="Path_1749-3" data-name="Path 1749" d="M10.043,11.476a.38.38,0,0,1-.27-.112,3.16,3.16,0,0,0-4.465,0,.381.381,0,0,1-.539-.539,3.922,3.922,0,0,1,5.544,0,.381.381,0,0,1-.27.651Z" transform="translate(-3.6 -8.183)" fill="#4880fb"/>
            <path id="Path_1750-3" data-name="Path 1750" d="M8,6.032a.38.38,0,0,1-.269-.111,4.652,4.652,0,0,0-6.58,0,.381.381,0,0,1-.538-.54,5.415,5.415,0,0,1,7.656,0A.381.381,0,0,1,8,6.032Z" transform="translate(-0.5 -3.795)" fill="#4880fb"/>
          </g>
          <path id="Path_1900-3" data-name="Path 1900" d="M0,2.2a.419.419,0,0,1,.394-.441h1.36a.667.667,0,0,0,.6-.485l.015-.05.059-.2a2.359,2.359,0,0,1,.111-.32A1.2,1.2,0,0,1,3.4.017,1.753,1.753,0,0,1,3.706,0H5.481a1.753,1.753,0,0,1,.306.017,1.2,1.2,0,0,1,.861.7,2.352,2.352,0,0,1,.111.32l.059.2.015.05a.726.726,0,0,0,.648.485H8.793a.419.419,0,0,1,.394.441.419.419,0,0,1-.394.441H.394A.419.419,0,0,1,0,2.2Z" transform="translate(4.408 4.089)" fill="#4880fb" stroke="#4880fb" stroke-width="1" opacity="0.8"/>
        </g>
      </g>
      <g id="Group_7184" data-name="Group 7184" transform="translate(260.788 -33)" opacity="0.3">
        <g id="Group_3863-4" data-name="Group 3863" transform="translate(38 63)">
          <path id="Path_1731-4" data-name="Path 1731" d="M25.425,14.206a8.153,8.153,0,0,1-6.094,7.922l-1.643,3.283a.548.548,0,0,1-.975,0l-1.643-3.283a8.208,8.208,0,1,1,10.354-7.922Z" transform="translate(-8.998 -5.998)" fill="#4880fb"/>
          <circle id="Ellipse_165-4" data-name="Ellipse 165" cx="6.484" cy="6.484" r="6.484" transform="translate(1.729 1.603)" fill="#fff"/>
          <g id="Group_4283-4" data-name="Group 4283" transform="translate(4.618 7.025)">
            <circle id="Ellipse_167-4" data-name="Ellipse 167" cx="0.722" cy="0.722" r="0.722" transform="translate(2.874 4.218)" fill="#4880fb" stroke="#4880fb" stroke-width="0.3"/>
            <path id="Path_1748-4" data-name="Path 1748" d="M11.8,16.8a.347.347,0,0,1-.245-.1,1.521,1.521,0,0,0-2.147,0,.348.348,0,1,1-.49-.494,2.217,2.217,0,0,1,3.127,0,.348.348,0,0,1-.245.6Z" transform="translate(-6.887 -12.832)" fill="#4880fb" stroke="#4880fb" stroke-width="0.3"/>
            <path id="Path_1749-4" data-name="Path 1749" d="M9.571,11.319a.347.347,0,0,1-.246-.1,2.883,2.883,0,0,0-4.074,0,.348.348,0,0,1-.492-.492,3.579,3.579,0,0,1,5.058,0,.348.348,0,0,1-.246.594Z" transform="translate(-3.693 -8.314)" fill="#4880fb" stroke="#4880fb" stroke-width="0.3"/>
            <path id="Path_1750-4" data-name="Path 1750" d="M7.343,5.836a.347.347,0,0,1-.246-.1,4.245,4.245,0,0,0-6,0A.348.348,0,0,1,.6,5.242a4.941,4.941,0,0,1,6.986,0,.348.348,0,0,1-.246.594Z" transform="translate(-0.5 -3.795)" fill="#4880fb" stroke="#4880fb" stroke-width="0.3"/>
          </g>
          <path id="Path_1900-4" data-name="Path 1900" d="M0,2.011a.383.383,0,0,1,.359-.4H1.6a.609.609,0,0,0,.548-.442l.014-.046.053-.18a2.152,2.152,0,0,1,.1-.292A1.093,1.093,0,0,1,3.1.015,1.6,1.6,0,0,1,3.381,0H5A1.6,1.6,0,0,1,5.28.015a1.093,1.093,0,0,1,.786.634,2.146,2.146,0,0,1,.1.292l.053.18.014.046a.662.662,0,0,0,.591.442h1.2a.383.383,0,0,1,.359.4.383.383,0,0,1-.359.4H.359A.383.383,0,0,1,0,2.011Z" transform="translate(4.022 3.731)" fill="#4880fb" stroke="#4880fb" stroke-width="1" opacity="0.8"/>
        </g>
      </g>
      <g id="Group_7185" data-name="Group 7185" transform="translate(69.067 -3.602)" opacity="0.55">
        <g id="Group_3863-5" data-name="Group 3863" transform="translate(38 63)">
          <path id="Path_1731-5" data-name="Path 1731" d="M36.866,19.923a13.832,13.832,0,0,1-10.338,13.44l-2.787,5.569a.929.929,0,0,1-1.653,0L19.3,33.363a13.924,13.924,0,1,1,17.565-13.44Z" transform="translate(-8.998 -5.998)" fill="#4880fb"/>
          <circle id="Ellipse_165-5" data-name="Ellipse 165" cx="11" cy="11" r="11" transform="translate(2.933 2.72)" fill="#fff"/>
          <g id="Group_4283-5" data-name="Group 4283" transform="translate(7.835 11.917)">
            <circle id="Ellipse_167-5" data-name="Ellipse 167" cx="1.224" cy="1.224" r="1.224" transform="translate(4.875 7.157)" fill="#4880fb" stroke="#4880fb" stroke-width="0.3"/>
            <path id="Path_1748-5" data-name="Path 1748" d="M13.88,17.665a.588.588,0,0,1-.415-.171,2.581,2.581,0,0,0-3.643,0,.59.59,0,1,1-.831-.838,3.761,3.761,0,0,1,5.3,0,.59.59,0,0,1-.415,1.009Z" transform="translate(-5.543 -10.931)" fill="#4880fb" stroke="#4880fb" stroke-width="0.3"/>
            <path id="Path_1749-5" data-name="Path 1749" d="M12.994,12.461a.588.588,0,0,1-.417-.173,4.892,4.892,0,0,0-6.912,0,.59.59,0,1,1-.835-.835,6.072,6.072,0,0,1,8.581,0,.59.59,0,0,1-.417,1.008Z" transform="translate(-3.021 -7.363)" fill="#4880fb" stroke="#4880fb" stroke-width="0.3"/>
            <path id="Path_1750-5" data-name="Path 1750" d="M12.108,7.257a.589.589,0,0,1-.417-.172,7.2,7.2,0,0,0-10.185,0,.59.59,0,0,1-.833-.837,8.383,8.383,0,0,1,11.851,0,.59.59,0,0,1-.417,1.009Z" transform="translate(-0.5 -3.795)" fill="#4880fb" stroke="#4880fb" stroke-width="0.3"/>
          </g>
          <path id="Path_1900-5" data-name="Path 1900" d="M0,3.412A.649.649,0,0,1,.609,2.73h2.1a1.032,1.032,0,0,0,.929-.75L3.667,1.9l.091-.3a3.651,3.651,0,0,1,.172-.5A1.855,1.855,0,0,1,5.263.026,2.714,2.714,0,0,1,5.737,0H8.485a2.714,2.714,0,0,1,.474.026A1.855,1.855,0,0,1,10.292,1.1a3.64,3.64,0,0,1,.172.5l.091.3.023.078a1.123,1.123,0,0,0,1,.75h2.032a.649.649,0,0,1,.609.682.649.649,0,0,1-.609.682h-13A.649.649,0,0,1,0,3.412Z" transform="translate(6.823 6.33)" fill="#4880fb" stroke="#4880fb" stroke-width="1" opacity="0.8"/>
        </g>
      </g>
    </g>
  </g>
</svg>
