<svg xmlns="http://www.w3.org/2000/svg" width="150" height="150" viewBox="0 0 150 150">
  <g id="Group_7195" data-name="Group 7195" transform="translate(-113 -179)">
    <g id="Rectangle_3013" data-name="Rectangle 3013" transform="translate(113 179)" fill="#fff" stroke="#707070" stroke-width="1" opacity="0">
      <rect width="150" height="150" stroke="none"/>
      <rect x="0.5" y="0.5" width="149" height="149" fill="none"/>
    </g>
    <path id="Path_939" data-name="Path 939" d="M301.743,382.216A36.236,36.236,0,0,0,265.659,418.3c0,6.108,1.847,12.522,4.821,18.846l-.014.711c.118,0,.232,0,.349,0,7.217,14.91,20.606,29.236,30.927,37.755,15.094-12.263,36.32-36.555,36.32-57.31A36.287,36.287,0,0,0,301.743,382.216Zm0,6.367A29.947,29.947,0,0,1,331.7,418.3a35.444,35.444,0,0,1-2.872,12.97,14.5,14.5,0,0,1-7.332-4.15,18.586,18.586,0,0,1-4.283-7.216,15,15,0,0,0,.209-2.45,15.745,15.745,0,1,0-31.49,0,15.106,15.106,0,0,0,.209,2.449,18.563,18.563,0,0,1-4.283,7.217,14.506,14.506,0,0,1-6.989,4.071,35.423,35.423,0,0,1-2.839-12.892A29.9,29.9,0,0,1,301.743,388.583Zm-9.529,29.993c2.529.416,7.19,2.49,9.366,9.251,2.674-7.057,5.752-9.092,9.562-9.316-.655,5.257-5.906,11.685-9.507,14.832C298.119,430.209,292.9,423.822,292.214,418.576Zm1.166-5.839A9.462,9.462,0,0,1,310,412.8c-2.287.624-6.235,2.029-8.424,5.188A14.147,14.147,0,0,0,293.38,412.737Zm8.363,54.619c-7.7-6.778-18.017-18.486-24.248-30.457a20.822,20.822,0,0,0,8.812-5.457,23.818,23.818,0,0,0,2.873-3.634c.37.633.746,1.234,1.117,1.793a45.12,45.12,0,0,0,7.209,8.375l4.089,3.646,4.125-3.6a44.2,44.2,0,0,0,7.312-8.4c.376-.564.758-1.171,1.131-1.81a23.82,23.82,0,0,0,2.876,3.639,20.8,20.8,0,0,0,9.13,5.549C319.913,448.93,309.579,460.6,301.743,467.356Z" transform="translate(-110.465 -202.209)" fill="#0083c9"/>
    <g id="Group_3282" data-name="Group 3282" transform="translate(118.153 285.014)">
      <g id="Group_3281" data-name="Group 3281">
        <path id="Path_940" data-name="Path 940" d="M247.115,504.647a7.808,7.808,0,0,1-3.434,2.257,14.4,14.4,0,0,1-4.918.8,9.731,9.731,0,0,1-4.969-1.237,8.246,8.246,0,0,1-3.3-3.59,12.618,12.618,0,0,1-1.192-5.533v-1.483a13.419,13.419,0,0,1,1.1-5.66,8.156,8.156,0,0,1,3.179-3.659,10.466,10.466,0,0,1,10.937.585,7.916,7.916,0,0,1,2.594,5.39h-4.378a4.36,4.36,0,0,0-1.327-2.744,4.244,4.244,0,0,0-2.826-.869,3.989,3.989,0,0,0-3.494,1.724,9.058,9.058,0,0,0-1.214,5.127v1.395a8.625,8.625,0,0,0,1.3,5.187A4.465,4.465,0,0,0,239,504.093a4.989,4.989,0,0,0,3.613-1.079V499.25h-4.093v-3.313h8.591Z" transform="translate(-229.304 -485.277)" fill="#252425"/>
        <path id="Path_941" data-name="Path 941" d="M255.137,507.4h-4.5V485.572h4.5Z" transform="translate(-228.901 -485.271)" fill="#252425"/>
        <path id="Path_942" data-name="Path 942" d="M267.226,499.409h-3.583V507.4h-4.5V485.572h8.11a9.178,9.178,0,0,1,5.968,1.723,5.954,5.954,0,0,1,2.1,4.873,6.719,6.719,0,0,1-.967,3.725,6.594,6.594,0,0,1-2.931,2.377l4.722,8.92v.21h-4.827Zm-3.583-3.644h3.628a3.715,3.715,0,0,0,2.624-.862,3.081,3.081,0,0,0,.929-2.376,3.3,3.3,0,0,0-.877-2.429,3.642,3.642,0,0,0-2.691-.884h-3.613Z" transform="translate(-228.741 -485.271)" fill="#252425"/>
        <path id="Path_943" data-name="Path 943" d="M291.51,498.48h-8.636v8.92h-4.5V485.572h14.213v3.643h-9.715v5.637h8.636Z" transform="translate(-228.377 -485.271)" fill="#252425"/>
        <path id="Path_944" data-name="Path 944" d="M304.419,502.9h-7.885l-1.5,4.5h-4.783l8.126-21.829h4.168l8.171,21.829h-4.784Zm-6.671-3.642h5.457l-2.745-8.171Z" transform="translate(-228.153 -485.271)" fill="#252425"/>
        <path id="Path_945" data-name="Path 945" d="M316.835,503.788h9.55V507.4H312.337V485.572h4.5Z" transform="translate(-227.736 -485.271)" fill="#252425"/>
        <path id="Path_946" data-name="Path 946" d="M345.8,500.134a7.73,7.73,0,0,1-2.6,5.548,9.138,9.138,0,0,1-6.185,2.023,8.216,8.216,0,0,1-6.6-2.826q-2.406-2.826-2.407-7.759v-1.334a13.081,13.081,0,0,1,1.109-5.547,8.316,8.316,0,0,1,3.172-3.681,9.91,9.91,0,0,1,10.877.742,8.3,8.3,0,0,1,2.668,5.682h-4.5a4.563,4.563,0,0,0-1.177-3.066,4.358,4.358,0,0,0-3.081-.952,3.819,3.819,0,0,0-3.365,1.612,9.014,9.014,0,0,0-1.147,5v1.649a9.671,9.671,0,0,0,1.072,5.173,3.75,3.75,0,0,0,3.381,1.634,4.435,4.435,0,0,0,3.111-.953,4.3,4.3,0,0,0,1.177-2.946Z" transform="translate(-227.44 -485.277)" fill="#252425"/>
        <path id="Path_947" data-name="Path 947" d="M366.317,496.986a13.176,13.176,0,0,1-1.14,5.653,8.58,8.58,0,0,1-3.26,3.747,9.636,9.636,0,0,1-9.708.015,8.664,8.664,0,0,1-3.3-3.726,12.8,12.8,0,0,1-1.185-5.569v-1.08a13.111,13.111,0,0,1,1.163-5.674,8.645,8.645,0,0,1,3.283-3.763,9.619,9.619,0,0,1,9.7,0,8.651,8.651,0,0,1,3.283,3.763,13.074,13.074,0,0,1,1.163,5.66ZM361.759,496a9.192,9.192,0,0,0-1.23-5.218,4.343,4.343,0,0,0-7-.022,9.079,9.079,0,0,0-1.244,5.165v1.065a9.292,9.292,0,0,0,1.23,5.187,4.3,4.3,0,0,0,7.016.068,9.257,9.257,0,0,0,1.23-5.18Z" transform="translate(-227.068 -485.277)" fill="#252425"/>
      </g>
    </g>
    <g id="Group_3284" data-name="Group 3284" transform="translate(122.835 318.48)">
      <g id="Group_3283" data-name="Group 3283">
        <path id="Path_948" data-name="Path 948" d="M240.7,525.911a2.682,2.682,0,0,1-1.251.961,5.067,5.067,0,0,1-1.871.318,3.627,3.627,0,0,1-1.915-.505,3.368,3.368,0,0,1-1.294-1.44,4.952,4.952,0,0,1-.47-2.164v-.769a4.64,4.64,0,0,1,.93-3.091,3.24,3.24,0,0,1,2.615-1.1,3.35,3.35,0,0,1,2.224.706,3.079,3.079,0,0,1,1.03,2h-1.164a1.924,1.924,0,0,0-2.085-1.758,2.059,2.059,0,0,0-1.773.822,4.012,4.012,0,0,0-.609,2.381V523a3.762,3.762,0,0,0,.679,2.363,2.2,2.2,0,0,0,1.836.877,4.054,4.054,0,0,0,1.146-.146,1.768,1.768,0,0,0,.812-.49v-1.978H237.5v-.952h3.2Z" transform="translate(-233.899 -518.123)" fill="#464749"/>
        <path id="Path_949" data-name="Path 949" d="M246.808,523.613v3.454h-1.164v-8.823H248.9a3.268,3.268,0,0,1,2.27.739,2.508,2.508,0,0,1,.821,1.957,2.473,2.473,0,0,1-.8,1.979,3.413,3.413,0,0,1-2.3.695Zm0-.952H248.9a2.092,2.092,0,0,0,1.431-.44,1.61,1.61,0,0,0,.5-1.273,1.664,1.664,0,0,0-.5-1.262,1.959,1.959,0,0,0-1.364-.492h-2.157Z" transform="translate(-233.677 -518.121)" fill="#464749"/>
        <path id="Path_950" data-name="Path 950" d="M259.107,523.136a5.483,5.483,0,0,1-2.179-1.058,2.022,2.022,0,0,1-.682-1.549,2.132,2.132,0,0,1,.833-1.724,3.313,3.313,0,0,1,2.167-.683,3.618,3.618,0,0,1,1.621.353,2.661,2.661,0,0,1,1.1.969,2.481,2.481,0,0,1,.391,1.352h-1.17a1.615,1.615,0,0,0-.509-1.262,2.066,2.066,0,0,0-1.436-.46,2.115,2.115,0,0,0-1.343.38,1.267,1.267,0,0,0-.482,1.054,1.139,1.139,0,0,0,.457.914,4.5,4.5,0,0,0,1.558.683,7.243,7.243,0,0,1,1.721.683,2.607,2.607,0,0,1,.921.869,2.224,2.224,0,0,1,.3,1.171,2.064,2.064,0,0,1-.836,1.718,3.57,3.57,0,0,1-2.236.645,4.151,4.151,0,0,1-1.7-.348,2.843,2.843,0,0,1-1.215-.955,2.326,2.326,0,0,1-.428-1.375h1.171a1.52,1.52,0,0,0,.59,1.263,2.485,2.485,0,0,0,1.579.465,2.286,2.286,0,0,0,1.412-.376,1.222,1.222,0,0,0,.491-1.025,1.2,1.2,0,0,0-.455-1A5.227,5.227,0,0,0,259.107,523.136Z" transform="translate(-233.482 -518.123)" fill="#464749"/>
        <path id="Path_951" data-name="Path 951" d="M275.685,523.136a5.483,5.483,0,0,1-2.179-1.058,2.022,2.022,0,0,1-.682-1.549,2.132,2.132,0,0,1,.833-1.724,3.312,3.312,0,0,1,2.166-.683,3.615,3.615,0,0,1,1.621.353,2.663,2.663,0,0,1,1.1.969,2.481,2.481,0,0,1,.391,1.352h-1.17a1.615,1.615,0,0,0-.509-1.262,2.067,2.067,0,0,0-1.437-.46,2.114,2.114,0,0,0-1.342.38,1.264,1.264,0,0,0-.482,1.054,1.139,1.139,0,0,0,.457.914,4.5,4.5,0,0,0,1.558.683,7.243,7.243,0,0,1,1.721.683,2.607,2.607,0,0,1,.921.869,2.224,2.224,0,0,1,.3,1.171,2.061,2.061,0,0,1-.836,1.718,3.565,3.565,0,0,1-2.235.645,4.152,4.152,0,0,1-1.7-.348,2.852,2.852,0,0,1-1.216-.955,2.332,2.332,0,0,1-.427-1.375h1.17a1.521,1.521,0,0,0,.591,1.263,2.485,2.485,0,0,0,1.579.465,2.29,2.29,0,0,0,1.412-.376,1.222,1.222,0,0,0,.491-1.025,1.2,1.2,0,0,0-.455-1A5.227,5.227,0,0,0,275.685,523.136Z" transform="translate(-233.169 -518.123)" fill="#464749"/>
        <path id="Path_952" data-name="Path 952" d="M290.264,522.941a5.465,5.465,0,0,1-.436,2.264,3.3,3.3,0,0,1-1.237,1.475,3.41,3.41,0,0,1-4.966-1.463,5.231,5.231,0,0,1-.458-2.2v-.637a5.391,5.391,0,0,1,.443-2.249,3.273,3.273,0,0,1,3.1-2.012,3.421,3.421,0,0,1,1.87.513,3.3,3.3,0,0,1,1.246,1.485,5.5,5.5,0,0,1,.436,2.264Zm-1.157-.569a3.957,3.957,0,0,0-.631-2.409,2.079,2.079,0,0,0-1.764-.84,2.057,2.057,0,0,0-1.736.84,3.877,3.877,0,0,0-.652,2.33v.648a3.965,3.965,0,0,0,.64,2.391,2.24,2.24,0,0,0,3.506.049,3.947,3.947,0,0,0,.637-2.355Z" transform="translate(-232.969 -518.123)" fill="#464749"/>
        <path id="Path_953" data-name="Path 953" d="M296.182,526.115h4.182v.952h-5.352v-8.823h1.17Z" transform="translate(-232.745 -518.121)" fill="#464749"/>
        <path id="Path_954" data-name="Path 954" d="M310.629,518.243v6a2.815,2.815,0,0,1-.785,2.043,3.164,3.164,0,0,1-2.112.891l-.31.012a3.3,3.3,0,0,1-2.309-.781,2.8,2.8,0,0,1-.873-2.152v-6.011h1.152v5.976a1.84,1.84,0,0,0,2.03,2.018,2.039,2.039,0,0,0,1.512-.528,2.016,2.016,0,0,0,.525-1.486v-5.981Z" transform="translate(-232.571 -518.121)" fill="#464749"/>
        <path id="Path_955" data-name="Path 955" d="M321.591,519.194h-2.837v7.873H317.6v-7.873h-2.83v-.951h6.824Z" transform="translate(-232.372 -518.121)" fill="#464749"/>
        <path id="Path_956" data-name="Path 956" d="M327.165,527.067H326v-8.823h1.165Z" transform="translate(-232.16 -518.121)" fill="#464749"/>
        <path id="Path_957" data-name="Path 957" d="M339.192,522.941a5.466,5.466,0,0,1-.436,2.264,3.3,3.3,0,0,1-1.237,1.475,3.41,3.41,0,0,1-4.966-1.463,5.229,5.229,0,0,1-.458-2.2v-.637a5.391,5.391,0,0,1,.443-2.249,3.273,3.273,0,0,1,3.1-2.012,3.421,3.421,0,0,1,1.87.513,3.3,3.3,0,0,1,1.246,1.485,5.5,5.5,0,0,1,.436,2.264Zm-1.157-.569a3.958,3.958,0,0,0-.631-2.409,2.079,2.079,0,0,0-1.764-.84,2.057,2.057,0,0,0-1.736.84,3.877,3.877,0,0,0-.652,2.33v.648a3.964,3.964,0,0,0,.64,2.391,2.24,2.24,0,0,0,3.506.049,3.94,3.94,0,0,0,.637-2.355Z" transform="translate(-232.045 -518.123)" fill="#464749"/>
        <path id="Path_958" data-name="Path 958" d="M350.723,527.067h-1.17l-4.442-6.8v6.8h-1.17v-8.823h1.17l4.455,6.83v-6.83h1.157Z" transform="translate(-231.821 -518.121)" fill="#464749"/>
        <path id="Path_959" data-name="Path 959" d="M358.4,523.136a5.483,5.483,0,0,1-2.179-1.058,2.022,2.022,0,0,1-.682-1.549,2.135,2.135,0,0,1,.833-1.724,3.313,3.313,0,0,1,2.167-.683,3.618,3.618,0,0,1,1.621.353,2.654,2.654,0,0,1,1.1.969,2.481,2.481,0,0,1,.391,1.352h-1.17a1.614,1.614,0,0,0-.508-1.262,2.071,2.071,0,0,0-1.437-.46,2.115,2.115,0,0,0-1.343.38,1.267,1.267,0,0,0-.482,1.054,1.142,1.142,0,0,0,.457.914,4.5,4.5,0,0,0,1.558.683,7.225,7.225,0,0,1,1.721.683,2.609,2.609,0,0,1,.922.869,2.223,2.223,0,0,1,.3,1.171,2.064,2.064,0,0,1-.836,1.718,3.568,3.568,0,0,1-2.236.645,4.151,4.151,0,0,1-1.7-.348,2.855,2.855,0,0,1-1.215-.955,2.326,2.326,0,0,1-.428-1.375h1.171a1.518,1.518,0,0,0,.591,1.263,2.482,2.482,0,0,0,1.578.465,2.285,2.285,0,0,0,1.412-.376,1.222,1.222,0,0,0,.491-1.025,1.2,1.2,0,0,0-.454-1A5.246,5.246,0,0,0,358.4,523.136Z" transform="translate(-231.607 -518.123)" fill="#464749"/>
      </g>
    </g>
  </g>
</svg>
